<svg width="241" height="52" viewBox="0 0 241 52" fill="none" xmlns="http://www.w3.org/2000/svg">
<g clip-path="url(#clip0_336_2)">
<path d="M85.06 33.95C96.52 36.08 113.71 35.52 115.39 26.21C116.11 22.2 115.59 18.25 112.81 15.68C108.71 11.89 103.28 11.31 97.89 11.26C84.82 11.14 75.05 19.32 75.58 32.78C76.09 45.86 84.94 51.35 97.88 51.37C104.57 51.38 110.93 50.23 115.99 45.66L112.61 37.89C102.87 43.5 88.31 44.61 85.06 33.95ZM106.14 23.56C106.47 26.58 93.76 28.11 86.67 26.03C91.94 19.03 105.73 19.86 106.14 23.56Z" fill="white"/>
<path d="M127.6 33.95C139.06 36.08 156.25 35.52 157.93 26.21C158.65 22.2 158.13 18.25 155.35 15.68C151.25 11.89 145.82 11.31 140.43 11.26C127.36 11.14 117.59 19.32 118.12 32.78C118.63 45.86 127.48 51.35 140.42 51.37C147.11 51.38 153.47 50.23 158.53 45.66L155.15 37.89C145.41 43.5 130.85 44.61 127.6 33.95ZM148.68 23.56C149.01 26.58 136.3 28.11 129.21 26.03C134.48 19.03 148.27 19.86 148.68 23.56Z" fill="white"/>
<path d="M57.68 17.07L57.49 12.74H40.6L40.58 21.58L47.97 21.61V50.93H57.52C57.55 45.95 57.41 39.9 57.87 35.26C58.75 26.42 65.73 20.44 74.31 21.7L76.01 12.21C69.15 9.92 62.01 11.89 57.67 17.07H57.68Z" fill="white"/>
<path d="M21.18 37.07C27.35 36.07 33.26 34.37 36.03 28.6C37.23 26.09 37.37 20.87 36.35 18.41C33.09 10.54 17.33 10.21 9.61 17.99L9.58 -0.0100021H0V50.91L9.59 50.92V40.36L16.96 45.8C23.14 50.41 31.17 52.64 38.47 50.59L37.22 42.25C31.37 43.2 25.5 40.93 21.18 37.06V37.07ZM10.28 29.35C15.19 22.74 25.59 20.15 27.28 23.29C29.27 27.01 17.73 32.33 10.28 29.35Z" fill="white"/>
<path d="M239.95 28.59C239.25 18.47 231.43 12.47 222.38 11.28C221.11 11.11 219.81 11.04 218.51 11.06C218.38 11.06 218.24 11.06 218.1 11.07C214.61 11.19 211.36 12.02 208.53 13.47C204.77 15.39 201.79 18.39 200.06 22.25C199.05 24.48 198.47 27 198.4 29.75C198.25 35.89 199.5 41.25 203.71 45.59C211.5 53.61 227.95 53.09 235.11 45.18C239.21 40.66 240.41 35.24 239.95 28.58V28.59ZM221.47 42C215.32 43.34 209.78 39.66 208.5 33.44C207.64 29.26 209.18 25.02 212.44 22.51C213.78 21.49 215.41 20.74 217.29 20.42C218.29 20.25 219.27 20.21 220.22 20.29C225.03 20.7 228.95 24.23 229.94 29C231.22 35.15 227.42 40.71 221.47 42Z" fill="white"/>
<path d="M187.3 15.6L179.16 40.12L170.06 12.73H159.98L172.89 50.98H175.35H182.97H185.44L195.27 21.84L198.34 12.74V12.73H188.27L187.3 15.6Z" fill="white"/>
</g>
<defs>
<clipPath id="clip0_336_2">
<rect width="240.05" height="51.37" fill="white"/>
</clipPath>
</defs>
</svg>
